<svg width="821" height="285" viewBox="0 0 821 285" fill="none" xmlns="http://www.w3.org/2000/svg">
<path fill-rule="evenodd" clip-rule="evenodd" d="M188.018 201.263C180.218 201.263 173.168 199.463 166.868 195.863C160.568 192.263 155.568 187.363 151.868 181.163C148.268 174.963 146.368 167.963 146.168 160.163V87.7133C146.168 86.3133 146.568 85.2133 147.368 84.4133C148.268 83.6133 149.368 83.2133 150.668 83.2133C152.068 83.2133 153.168 83.6133 153.968 84.4133C154.768 85.2133 155.168 86.3133 155.168 87.7133V134.513C158.368 129.313 162.818 125.163 168.518 122.063C174.318 118.963 180.818 117.413 188.018 117.413C196.018 117.413 203.168 119.263 209.468 122.963C215.868 126.563 220.868 131.513 224.468 137.813C228.168 144.113 230.018 151.263 230.018 159.263C230.018 167.263 228.168 174.463 224.468 180.863C220.868 187.163 215.868 192.163 209.468 195.863C203.168 199.463 196.018 201.263 188.018 201.263ZM188.018 192.863C194.318 192.863 199.918 191.413 204.818 188.513C209.818 185.513 213.768 181.513 216.668 176.513C219.568 171.413 221.018 165.663 221.018 159.263C221.018 152.863 219.568 147.163 216.668 142.163C213.768 137.163 209.818 133.213 204.818 130.313C199.918 127.313 194.318 125.813 188.018 125.813C181.818 125.813 176.218 127.313 171.218 130.313C166.218 133.213 162.268 137.163 159.368 142.163C156.568 147.163 155.168 152.863 155.168 159.263C155.168 165.663 156.568 171.413 159.368 176.513C162.268 181.513 166.218 185.513 171.218 188.513C176.218 191.413 181.818 192.863 188.018 192.863ZM466.822 201.263C458.822 201.263 451.622 199.463 445.222 195.863C438.922 192.163 433.922 187.163 430.222 180.863C426.622 174.463 424.822 167.313 424.822 159.413C424.822 151.413 426.622 144.263 430.222 137.963C433.922 131.563 438.922 126.563 445.222 122.963C451.622 119.263 458.822 117.413 466.822 117.413C474.822 117.413 481.972 119.263 488.272 122.963C494.572 126.563 499.522 131.563 503.122 137.963C506.822 144.263 508.672 151.413 508.672 159.413C508.672 167.313 506.822 174.463 503.122 180.863C499.522 187.163 494.572 192.163 488.272 195.863C481.972 199.463 474.822 201.263 466.822 201.263ZM466.822 192.863C473.122 192.863 478.722 191.413 483.622 188.513C488.622 185.513 492.522 181.513 495.322 176.513C498.222 171.413 499.672 165.663 499.672 159.263C499.672 152.963 498.222 147.313 495.322 142.313C492.522 137.213 488.622 133.213 483.622 130.313C478.722 127.313 473.122 125.813 466.822 125.813C460.622 125.813 455.022 127.313 450.022 130.313C445.022 133.213 441.072 137.213 438.172 142.313C435.272 147.313 433.822 153.013 433.822 159.413C433.822 165.713 435.272 171.413 438.172 176.513C441.072 181.513 445.022 185.513 450.022 188.513C455.022 191.413 460.622 192.863 466.822 192.863ZM583.529 196.613C587.829 199.013 592.729 200.263 598.229 200.363H601.679C603.079 200.363 604.179 199.963 604.979 199.163C605.879 198.263 606.329 197.163 606.329 195.863C606.329 194.463 605.879 193.363 604.979 192.563C604.179 191.663 603.079 191.213 601.679 191.213H598.379C592.679 191.213 588.029 189.413 584.429 185.813C580.829 182.113 579.029 177.363 579.029 171.563V129.413H598.829C600.029 129.413 600.979 129.063 601.679 128.363C602.479 127.563 602.879 126.563 602.879 125.363C602.879 124.163 602.479 123.213 601.679 122.513C600.979 121.713 600.029 121.313 598.829 121.313H579.029V96.8633C579.029 95.4633 578.579 94.3633 577.679 93.5633C576.879 92.6633 575.779 92.2133 574.379 92.2133C573.079 92.2133 571.979 92.6633 571.079 93.5633C570.279 94.3633 569.879 95.4633 569.879 96.8633V121.313H569.878V129.413H569.879V171.563C569.879 177.063 571.079 182.013 573.479 186.413C575.879 190.713 579.229 194.113 583.529 196.613ZM670.127 200.363C668.827 200.363 667.727 199.963 666.827 199.163C666.027 198.263 665.627 197.163 665.627 195.863V122.813C665.627 121.413 666.027 120.313 666.827 119.513C667.727 118.713 668.827 118.313 670.127 118.313C671.527 118.313 672.627 118.713 673.427 119.513C674.227 120.313 674.627 121.413 674.627 122.813V195.863C674.627 197.163 674.227 198.263 673.427 199.163C672.627 199.963 671.527 200.363 670.127 200.363ZM322.418 121.674C322.418 119.327 324.321 117.424 326.668 117.424C329.015 117.424 330.918 119.327 330.918 121.674V159.519C330.918 161.866 329.015 163.769 326.668 163.769C324.321 163.769 322.418 161.866 322.418 159.519V121.674ZM367.22 160.872C367.22 183.268 349.064 201.424 326.668 201.424C304.272 201.424 286.116 183.268 286.116 160.872C286.116 149.226 291.026 138.726 298.889 131.329C300.775 129.555 303.749 130.183 305.044 132.426C306.124 134.297 305.639 136.655 304.108 138.178C298.277 143.974 294.668 152.002 294.668 160.872C294.668 178.545 308.995 192.872 326.668 192.872C344.341 192.872 358.668 178.545 358.668 160.872C358.668 152.002 355.059 143.974 349.228 138.178C347.697 136.655 347.212 134.297 348.292 132.426C349.587 130.183 352.561 129.555 354.447 131.329C362.31 138.726 367.22 149.226 367.22 160.872Z" fill="#292929"/>
</svg>
